<svg xmlns="http://www.w3.org/2000/svg" width="512" height="512"><g transform="matrix(1.37995 0 0 1.37995 -94.142 -835.135)"><ellipse style="fill:#606060;fill-opacity:1;stroke:none;stroke-width:4.76687;stroke-linecap:square;stroke-linejoin:bevel;stroke-miterlimit:4;stroke-dasharray:none;stroke-opacity:1" cx="272.227" cy="957.088" rx="153.618" ry="14.117"/><path style="fill:#404040;fill-opacity:1;stroke:none;stroke-width:.714608" d="m433.526 852.221-1.607-12.563c1.453.134 2.274 10.618-6.59 28.58-2.781 5.64-7.863 15.132-7.044 14.777-4.185 23.586-12.89 43.36-30.438 55.68-31.599 30.77-205.137 32.374-241.125 5.531 0 0 .42-9.212-1.819-8.875-1.719.259-1.281 6.447-1.281 6.447s-3.69-11.885-4.706-12.54c-6.218-4.013-11.29-7.762-15.459-11.443-3.164 4.664.892 7.828-.274 6.443-1.288-1.53-7.616-8.152-7.33-14.257-11.554-14.155-12.301-29.356-15.973-56.698-5.596 12.947-7.868 14.771-7.868 14.771 9.848-22.114 6.351-60.908 12.043-86.884 1.232-5.545-5.458 7.558-3.72 2.35 2.784-8.336.125-11.46 5.13-19.803-5.457-14.402-22.005-25.843-26.8-40.71 0 0 3.293 2.353 3.585 2.473.201.83-7.83-17.345-10.548-19.078 7.662-1.794 20.102-.605 28.658-.373.133-1.645-4.374-2.135-4.374-2.135s5.604.168 10.414 1.597l-3.105-2.842c11.19 3.554 27.472 7.163 39.835 11.51 26.355-27.163 57.209-48.098 88.84-54.188 0 0-31.158 15.827-27.76 14.337 24.21-10.619 54.723-20.661 81.727-15.214 3.995-9.395 17.112-21.345 29.789-30.783 2.153-6.863 4.783-7.007 4.783-7.007s-1.042.84-.573 3.578c3.465-2.361 9.745-6.15 12.617-7.827-.098-2.594 2.96-6.863 2.96-6.863s-.718 2.125 1.372 3.773c.342 1.017 3.01-4.45 3.324-3.483 3.074 9.501 3.014 24.838 3.461 32.382 0 0 2.184-4.974 2.173-3.788-.006.581.216 4.61.13 9.153.984-.715 1.466-2.389 1.426-1.09-.862 5.607-1.419 8.833-3.795 14.4-.801 8.783.067 3.086-.874 12.372 16.975 5.492 38.891 17.879 38.891 17.879s-26.56-6.534-20.408-3.72c31.018 26.754 42.23 61.618 69.692 80.049l-10.549-2.35c8.004 24.948 20.56 62.403 13.17 86.432z"/><path style="fill:#dedede;fill-opacity:1;stroke:none;stroke-width:4.76687;stroke-linecap:square;stroke-linejoin:bevel;stroke-miterlimit:4;stroke-dasharray:none;stroke-opacity:1" d="M135.503 719.646c-5.63-.597-7.221-2.228-7.221-2.228s1.116 2.874 2.794 3.656c-4.523.67-8.047 3.428-8.047 3.428s8.064-1.77 7.814.086c-3.16 3.243-6.867 8.262-9.972 13.016-.671 1.026.045-6.085-.558-5.104-3.081 9.516-10.436 24.754-11.144 22.821-1.385-3.805-15.005-15.882-19.193-28.604-2.209-6.711-6.29-11.693-7.449-14.031 5.709-1.594 47.526 1.459 52.976 6.96zM335.005 624.255c1.145 5.044 5.702 15.846 1.642 46.63-21.886-8.58-35.49-9.288-35.49-9.288.965-4.882 8.514-5.693 8.514-5.693s-8.725.266-10.771 3.295c1.086-3.316.64-6.582.64-6.582s-2.407 4.778-6.617 7.261c.6-9.81 33.623-33.178 42.083-35.623z"/><path style="fill:#dedede;fill-opacity:1;stroke:none;stroke-width:.680981" d="M286.894 696.216a123.372 123.372 0 0 0-5.824-1.153l-9.51 61.787c.476.094.954.196 1.43.302 32.358 7.189 52.855 38.84 45.779 70.689a58.102 58.102 0 0 1-11.47 23.898l47.932 40.086c11.457-14.181 19.908-31.154 24.132-50.162 14.605-65.739-26.795-130.857-92.469-145.447zm-9.222-1.69c-.109-.015-.217-.025-.325-.04l-.025.182.426-.124c-.026-.004-.051-.014-.076-.017zm-109.354 40.952c-12.813 14.796-22.238 32.895-26.782 53.347-14.605 65.739 26.795 130.857 92.469 145.447 3.33.74 6.657 1.339 9.979 1.794l9.623-62.513a61.685 61.685 0 0 1-6.243-1.058c-32.358-7.19-52.855-38.84-45.78-70.689a58.101 58.101 0 0 1 13.977-26.802z"/><path style="color:#000;font-style:normal;font-variant:normal;font-weight:400;font-stretch:normal;font-size:medium;line-height:normal;font-family:sans-serif;font-variant-ligatures:normal;font-variant-position:normal;font-variant-caps:normal;font-variant-numeric:normal;font-variant-alternates:normal;font-variant-east-asian:normal;font-feature-settings:normal;font-variation-settings:normal;text-indent:0;text-align:start;text-decoration:none;text-decoration-line:none;text-decoration-style:solid;text-decoration-color:#000;letter-spacing:normal;word-spacing:normal;text-transform:none;writing-mode:lr-tb;direction:ltr;text-orientation:mixed;dominant-baseline:auto;baseline-shift:baseline;text-anchor:start;white-space:normal;shape-padding:0;shape-margin:0;inline-size:0;clip-rule:nonzero;display:inline;overflow:visible;visibility:visible;isolation:auto;mix-blend-mode:normal;color-interpolation:sRGB;color-interpolation-filters:linearRGB;solid-color:#000;solid-opacity:1;vector-effect:none;fill:#fefefe;fill-opacity:1;fill-rule:nonzero;stroke:none;stroke-width:8;stroke-linecap:round;stroke-linejoin:round;stroke-miterlimit:4;stroke-dasharray:none;stroke-dashoffset:0;stroke-opacity:1;color-rendering:auto;image-rendering:auto;shape-rendering:auto;text-rendering:auto;enable-background:accumulate;stop-color:#000;stop-opacity:1" d="M220.849 715.222c0 17.374-14.084 31.458-31.458 31.458s-31.458-14.084-31.458-31.458 14.084-31.458 31.458-31.458 31.458 14.084 31.458 31.458z" transform="rotate(-20 474.642 750.975)"/><path style="color:#000;font-style:normal;font-variant:normal;font-weight:400;font-stretch:normal;font-size:medium;line-height:normal;font-family:sans-serif;font-variant-ligatures:normal;font-variant-position:normal;font-variant-caps:normal;font-variant-numeric:normal;font-variant-alternates:normal;font-variant-east-asian:normal;font-feature-settings:normal;font-variation-settings:normal;text-indent:0;text-align:start;text-decoration:none;text-decoration-line:none;text-decoration-style:solid;text-decoration-color:#000;letter-spacing:normal;word-spacing:normal;text-transform:none;writing-mode:lr-tb;direction:ltr;text-orientation:mixed;dominant-baseline:auto;baseline-shift:baseline;text-anchor:start;white-space:normal;shape-padding:0;shape-margin:0;inline-size:0;clip-rule:nonzero;display:inline;overflow:visible;visibility:visible;isolation:auto;mix-blend-mode:normal;color-interpolation:sRGB;color-interpolation-filters:linearRGB;solid-color:#000;solid-opacity:1;vector-effect:none;fill:#959595;fill-opacity:1;fill-rule:nonzero;stroke:none;stroke-width:8;stroke-linecap:round;stroke-linejoin:round;stroke-miterlimit:4;stroke-dasharray:none;stroke-dashoffset:0;stroke-opacity:1;color-rendering:auto;image-rendering:auto;shape-rendering:auto;text-rendering:auto;enable-background:accumulate;stop-color:#000;stop-opacity:1" d="M189.39 679.764c-19.535 0-35.456 15.923-35.456 35.459 0 19.535 15.921 35.457 35.457 35.457 19.535 0 35.459-15.922 35.459-35.457 0-19.536-15.924-35.46-35.46-35.46zm0 8a27.4 27.4 0 0 1 27.46 27.459 27.398 27.398 0 0 1-27.46 27.457 27.396 27.396 0 0 1-27.456-27.457 27.398 27.398 0 0 1 27.457-27.46z" transform="rotate(-20 474.642 750.975)"/><path style="fill:#959595;fill-opacity:1;stroke:none;stroke-width:4.51153;stroke-linecap:square;stroke-linejoin:bevel;stroke-miterlimit:4;stroke-dasharray:none;stroke-opacity:1" d="M256.723 822.509c4.326-2.414 7.043 3.53 3.486 5.698-6.49 3.954-2.973 11.797 2.686 9.405 1.68-.71 2.62-4.554 2.237-5.924-1.382-4.94 4.577-7.008 6.074-2.304.352 1.107 3.96 3.719 5.839 3.431 8.106-1.24 4.432-13.028-4.093-9.485-3.965 1.648-7.16-3.782-1.514-6.418 17.46-8.15 26.376 30.087-.572 21.11-12.445 18.822-33.744-4.575-14.143-15.513z"/><path style="color:#000;font-style:normal;font-variant:normal;font-weight:400;font-stretch:normal;font-size:medium;line-height:normal;font-family:sans-serif;font-variant-ligatures:normal;font-variant-position:normal;font-variant-caps:normal;font-variant-numeric:normal;font-variant-alternates:normal;font-variant-east-asian:normal;font-feature-settings:normal;font-variation-settings:normal;text-indent:0;text-align:start;text-decoration:none;text-decoration-line:none;text-decoration-style:solid;text-decoration-color:#000;letter-spacing:normal;word-spacing:normal;text-transform:none;writing-mode:lr-tb;direction:ltr;text-orientation:mixed;dominant-baseline:auto;baseline-shift:baseline;text-anchor:start;white-space:normal;shape-padding:0;shape-margin:0;inline-size:0;clip-rule:nonzero;display:inline;overflow:visible;visibility:visible;isolation:auto;mix-blend-mode:normal;color-interpolation:sRGB;color-interpolation-filters:linearRGB;solid-color:#000;solid-opacity:1;vector-effect:none;fill:#fefefe;fill-opacity:1;fill-rule:nonzero;stroke:none;stroke-width:8;stroke-linecap:round;stroke-linejoin:round;stroke-miterlimit:4;stroke-dasharray:none;stroke-dashoffset:0;stroke-opacity:1;color-rendering:auto;image-rendering:auto;shape-rendering:auto;text-rendering:auto;enable-background:accumulate;stop-color:#000;stop-opacity:1" d="M284.478 712.27c0 17.375-14.084 31.459-31.458 31.459s-31.458-14.084-31.458-31.458 14.084-31.458 31.458-31.458 31.458 14.084 31.458 31.458z" transform="rotate(-20 456.78 559.01)"/><path style="color:#000;font-style:normal;font-variant:normal;font-weight:400;font-stretch:normal;font-size:medium;line-height:normal;font-family:sans-serif;font-variant-ligatures:normal;font-variant-position:normal;font-variant-caps:normal;font-variant-numeric:normal;font-variant-alternates:normal;font-variant-east-asian:normal;font-feature-settings:normal;font-variation-settings:normal;text-indent:0;text-align:start;text-decoration:none;text-decoration-line:none;text-decoration-style:solid;text-decoration-color:#000;letter-spacing:normal;word-spacing:normal;text-transform:none;writing-mode:lr-tb;direction:ltr;text-orientation:mixed;dominant-baseline:auto;baseline-shift:baseline;text-anchor:start;white-space:normal;shape-padding:0;shape-margin:0;inline-size:0;clip-rule:nonzero;display:inline;overflow:visible;visibility:visible;isolation:auto;mix-blend-mode:normal;color-interpolation:sRGB;color-interpolation-filters:linearRGB;solid-color:#000;solid-opacity:1;vector-effect:none;fill:#959595;fill-opacity:1;fill-rule:nonzero;stroke:none;stroke-width:8;stroke-linecap:round;stroke-linejoin:round;stroke-miterlimit:4;stroke-dasharray:none;stroke-dashoffset:0;stroke-opacity:1;color-rendering:auto;image-rendering:auto;shape-rendering:auto;text-rendering:auto;enable-background:accumulate;stop-color:#000;stop-opacity:1" d="M253.02 676.813c-19.536 0-35.458 15.923-35.458 35.458 0 19.536 15.922 35.458 35.458 35.458 19.535 0 35.459-15.922 35.459-35.458 0-19.535-15.924-35.458-35.46-35.458zm0 8a27.4 27.4 0 0 1 27.459 27.458 27.398 27.398 0 0 1-27.46 27.458 27.396 27.396 0 0 1-27.457-27.458 27.398 27.398 0 0 1 27.458-27.458z" transform="rotate(-20 456.78 559.01)"/><path style="fill:#fe8c95;fill-opacity:1;stroke:none;stroke-width:3.72128;stroke-linecap:square;stroke-linejoin:bevel;stroke-miterlimit:4;stroke-dasharray:none;stroke-opacity:1" d="M348.417 801.915s2.215-3.124 3.487.544c-.73 7.843-3.27 14.275-3.27 14.275-1.763 4.418-4.29 1.354-3.63-.648.9-6.102 1.124-7.116 3.413-14.17zM336.74 806.418s2.216-3.124 3.488.544c-.73 7.843-3.27 14.275-3.27 14.275-1.763 4.418-4.29 1.354-3.63-.648.9-6.102 1.124-7.115 3.413-14.17zM324.714 810.913s2.215-3.125 3.487.544c-.73 7.842-3.27 14.274-3.27 14.274-1.763 4.419-4.29 1.354-3.63-.648.9-6.102 1.124-7.115 3.413-14.17zM214.844 850.84s2.215-3.125 3.487.544c-.73 7.842-3.27 14.274-3.27 14.274-1.763 4.419-4.29 1.354-3.63-.648.9-6.102 1.124-7.115 3.413-14.17zM203.168 855.343s2.215-3.125 3.487.544c-.73 7.842-3.27 14.274-3.27 14.274-1.763 4.419-4.29 1.354-3.63-.648.9-6.102 1.124-7.115 3.413-14.17zM191.14 859.837s2.216-3.125 3.488.544c-.73 7.842-3.27 14.275-3.27 14.275-1.763 4.418-4.29 1.353-3.63-.649.9-6.102 1.124-7.115 3.413-14.17z"/><circle style="fill:#959595;fill-opacity:1;stroke:none;stroke-width:0;stroke-linecap:round;stroke-linejoin:round;stroke-miterlimit:4;stroke-dasharray:none;stroke-opacity:1" cx="-103.457" cy="845.295" r="6.153" transform="rotate(-20)"/><circle style="fill:#959595;fill-opacity:1;stroke:none;stroke-width:0;stroke-linecap:round;stroke-linejoin:round;stroke-miterlimit:4;stroke-dasharray:none;stroke-opacity:1" cx="43.847" cy="820.489" r="6.153" transform="rotate(-20)"/></g></svg>